<svg xmlns="http://www.w3.org/2000/svg" viewBox="0 0 64 64"><defs><linearGradient id="gold" x1=".15" y1="0" x2=".9" y2="1"><stop stop-color="#FFE5A1"/><stop offset=".45" stop-color="#C68A35"/><stop offset="1" stop-color="#805221"/></linearGradient><linearGradient id="metal" x1="0" y1="0" x2=".9" y2="1"><stop stop-color="#FCE6A2"/><stop offset=".5" stop-color="#A96F2B"/><stop offset="1" stop-color="#EACA75"/></linearGradient></defs><path d="M15 11 39 8l14 7-1 12-24 6-14-8z" fill="#8A5827" stroke="#533615" stroke-width="2"/><path d="m15 8 24-4 14 8-1 12-25 5-13-9z" fill="url(#metal)" stroke="#553819" stroke-width="2"/><path d="m12 26 28-5 13 9v19l-30 7-12-10z" fill="#78501D" stroke="#533615" stroke-width="2"/><path d="m12 23 27-5 14 9-1 18-30 7-11-10z" fill="url(#gold)" stroke="#70441F" stroke-width="2"/><path d="m18 29 20-4 9 6-1 10-21 5-7-7z" fill="#F6D98B" stroke="#634116" stroke-width="1.6"/><text x="32" y="39" fill="#523310" font-size="13" font-family="Arial,sans-serif" font-weight="900" text-anchor="middle" transform="rotate(-9 32 36)">UC</text><path d="M16 47 24 54l29-7" fill="none" stroke="#E8C376" stroke-width="2"/></svg>